<svg id="artwork" xmlns="http://www.w3.org/2000/svg" viewBox="0 0 135 40"><defs><style>.cls-1{fill:#a6a6a6;}.cls-2,.cls-7{fill:#fff;}.cls-3{fill:#ea4335;}.cls-4{fill:#fbbc04;}.cls-5{fill:#4285f4;}.cls-6{fill:#34a853;}.cls-7{font-size:8.7px;font-family:ProductSans-Medium, Product Sans Medium;font-weight:500;}.cls-8{letter-spacing:0.03em;}.cls-9{letter-spacing:0em;}.cls-10{letter-spacing:0.01em;}.cls-11{letter-spacing:0.02em;}.cls-12{letter-spacing:0.01em;}.cls-13{letter-spacing:-0.04em;}</style></defs><rect width="135" height="40" rx="5"/><path class="cls-1" d="M130,.8A4.2,4.2,0,0,1,134.2,5V35a4.2,4.2,0,0,1-4.2,4.2H5A4.2,4.2,0,0,1,.8,35V5A4.2,4.2,0,0,1,5,.8H130m0-.8H5A5,5,0,0,0,0,5V35a5,5,0,0,0,5,5H130a5,5,0,0,0,5-5V5a5,5,0,0,0-5-5Z"/><path class="cls-2" d="M68.14,21.75A4.26,4.26,0,1,0,72.41,26,4.19,4.19,0,0,0,68.14,21.75Zm0,6.83A2.58,2.58,0,1,1,70.54,26,2.46,2.46,0,0,1,68.14,28.58Zm-9.32-6.83A4.26,4.26,0,1,0,63.09,26,4.19,4.19,0,0,0,58.82,21.75Zm0,6.83A2.58,2.58,0,1,1,61.22,26,2.46,2.46,0,0,1,58.82,28.58ZM47.74,23.06v1.8h4.32a3.77,3.77,0,0,1-1,2.27,4.42,4.42,0,0,1-3.34,1.32,4.8,4.8,0,0,1,0-9.6A4.64,4.64,0,0,1,51,20.14l1.27-1.27a6.3,6.3,0,0,0-4.53-1.82,6.61,6.61,0,1,0,0,13.21,6.07,6.07,0,0,0,4.61-1.85,6,6,0,0,0,1.56-4.23,6.27,6.27,0,0,0-.09-1.12Zm45.31,1.4a4,4,0,0,0-3.64-2.71,4,4,0,0,0-4,4.25,4.23,4.23,0,0,0,7.76,2.37l-1.45-1a2.41,2.41,0,0,1-2.09,1.17,2.15,2.15,0,0,1-2.06-1.29l5.69-2.35Zm-5.8,1.42a2.33,2.33,0,0,1,2.23-2.48,1.64,1.64,0,0,1,1.57.9ZM82.63,30H84.5V17.5H82.63Zm-3.06-7.3H79.5a2.94,2.94,0,0,0-2.24-.95,4.26,4.26,0,0,0,0,8.51,2.88,2.88,0,0,0,2.24-1h.07v.61c0,1.63-.87,2.5-2.27,2.5a2.36,2.36,0,0,1-2.15-1.51l-1.62.67a4,4,0,0,0,3.77,2.52c2.19,0,4-1.29,4-4.43V22H79.57Zm-2.15,5.88a2.58,2.58,0,0,1,0-5.15A2.39,2.39,0,0,1,79.7,26,2.38,2.38,0,0,1,77.42,28.58ZM101.81,17.5H97.33V30H99.2V25.26h2.61a3.89,3.89,0,1,0,0-7.76Zm0,6H99.2V19.24h2.65a2.14,2.14,0,1,1,0,4.28Zm11.54-1.79a3.49,3.49,0,0,0-3.33,1.91l1.65.69a1.78,1.78,0,0,1,1.71-.91,1.8,1.8,0,0,1,2,1.61v.12a4.18,4.18,0,0,0-1.95-.48c-1.78,0-3.6,1-3.6,2.82a2.89,2.89,0,0,0,3.11,2.75A2.65,2.65,0,0,0,115.32,29h.06v1h1.8V25.19C117.18,23,115.52,21.73,113.39,21.73Zm-.23,6.85c-.61,0-1.46-.31-1.46-1.06,0-1,1.06-1.34,2-1.34a3.32,3.32,0,0,1,1.7.42A2.26,2.26,0,0,1,113.16,28.58ZM123.74,22l-2.14,5.42h-.06L119.32,22h-2l3.33,7.58-1.9,4.21h2L125.82,22Zm-16.8,8h1.86V17.5h-1.86Z"/><path class="cls-3" d="M20.72,19.42,10.07,30.72h0a2.89,2.89,0,0,0,4.24,1.74l0,0,12-6.92Z"/><path class="cls-4" d="M31.49,17.5h0l-5.18-3-5.82,5.19,5.84,5.85,5.15-3a2.87,2.87,0,0,0,0-5.06Z"/><path class="cls-5" d="M10.07,9.28A2.94,2.94,0,0,0,10,10V30a2.94,2.94,0,0,0,.1.74l11-11Z"/><path class="cls-6" d="M20.8,20l5.51-5.51-12-6.94a2.92,2.92,0,0,0-1.49-.41,2.89,2.89,0,0,0-2.78,2.13h0Z"/><text class="cls-7" transform="translate(41.08 13.13)"><tspan class="cls-8">L</tspan><tspan class="cls-9" x="4.76" y="0">A</tspan><tspan class="cls-10" x="10.82" y="0">S</tspan><tspan x="15.78" y="0">T </tspan><tspan class="cls-11" x="22.58" y="0">N</tspan><tspan class="cls-12" x="28.92" y="0">E</tspan><tspan x="33.92" y="0">D </tspan><tspan class="cls-13" x="41.96" y="0">P</tspan><tspan x="46.62" y="0">Å</tspan></text></svg>