<svg xmlns="http://www.w3.org/2000/svg" viewBox="0 0 588.53 175"><defs><style>.cls-1,.cls-2{fill:#2196f3;}.cls-1{opacity:0.2;}.cls-2{stroke:#fff;stroke-miterlimit:10;stroke-width:2px;}</style></defs><g id="Layer_2" data-name="Layer 2"><g id="Layer_5" data-name="Layer 5"><path d="M282.59,12.92c30,0,49,16.6,49.81,43.33H306.48C305.87,43.49,296.76,36,282.18,36c-16,0-26.32,7.69-26.32,20,0,10.52,5.67,16.4,18,19.23l23.29,5.06c25.31,5.47,37.66,18.43,37.66,40.5,0,27.54-21.46,45.35-54.06,45.35-31.59,0-52.24-16.8-52.85-43.33h25.92c.2,12.56,10.32,20,26.93,20,17.21,0,28.14-7.49,28.14-19.84,0-9.93-5.06-15.8-17.21-18.43l-23.49-5.26c-25.11-5.47-38.27-19.85-38.27-42.53C229.94,30.94,251.41,12.92,282.59,12.92Z"/><circle class="cls-1" cx="367" cy="29" r="29"/><circle class="cls-1" cx="526" cy="29" r="29"/><path class="cls-2" d="M367,43.49a14.9,14.9,0,0,0,14.78-15,15,15,0,0,0-30,0A15,15,0,0,0,367,43.49Z"/><rect x="354.67" y="63.54" width="24.7" height="100.03"/><path d="M393.54,63.54h26.32l17.42,46c4.25,12,7.69,22.27,8.91,27.74,1.41-6.28,5.06-16.81,9.31-27.74l18.22-46h25.52l-41.71,100h-24.3Z"/><path class="cls-2" d="M525.76,43.49a14.9,14.9,0,0,0,14.78-15,15,15,0,0,0-30,0A15,15,0,0,0,525.76,43.49Z"/><rect x="513.41" y="63.54" width="24.7" height="100.03"/><path d="M564,163.56V12.92h24.5V163.56Z"/></g><g id="Layer_4" data-name="Layer 4"><circle cx="85.5" cy="89.5" r="12.61"/><circle cx="85.5" cy="62.87" r="11.21"/><circle cx="112.13" cy="89.5" r="11.21"/><circle cx="58.87" cy="89.5" r="11.21"/><circle cx="85.5" cy="116.13" r="11.21"/><circle cx="58.87" cy="116.13" r="9.81"/><circle cx="58.87" cy="62.87" r="9.81"/><circle cx="112.13" cy="62.87" r="9.81"/><circle cx="112.13" cy="116.13" r="9.81"/><circle cx="138.76" cy="89.5" r="9.81"/><circle cx="85.5" cy="36.24" r="9.81"/><circle cx="32.24" cy="89.5" r="9.81"/><circle cx="32.24" cy="62.87" r="7.01"/><circle cx="32.24" cy="36.24" r="4.2"/><circle cx="58.87" cy="36.24" r="7.01"/><circle cx="112.13" cy="36.24" r="7.01"/><circle cx="85.5" cy="9.61" r="5.61"/><circle cx="58.87" cy="9.61" r="4.2"/><circle cx="112.13" cy="9.61" r="4.2"/><circle cx="138.76" cy="62.87" r="7.01"/><circle cx="138.76" cy="36.24" r="4.2"/><circle cx="138.76" cy="116.13" r="7.01"/><circle cx="138.76" cy="142.76" r="4.2"/><circle cx="165.39" cy="89.5" r="5.61"/><circle cx="165.39" cy="62.87" r="4.2"/><circle cx="165.39" cy="116.13" r="4.2"/><circle cx="112.13" cy="142.76" r="7.01"/><circle cx="58.87" cy="142.76" r="7.01"/><circle cx="32.24" cy="116.13" r="7.01"/><circle cx="32.24" cy="142.76" r="4.2"/><circle cx="5.61" cy="89.5" r="5.61"/><circle cx="5.61" cy="62.87" r="4.2"/><circle cx="5.61" cy="116.13" r="4.2"/><circle cx="85.5" cy="142.76" r="9.81"/><circle cx="112.13" cy="169.39" r="4.2"/><circle cx="58.87" cy="169.39" r="4.2"/><circle cx="85.5" cy="169.39" r="5.61"/></g></g></svg>