<svg id="Layer_1" data-name="Layer 1" xmlns="http://www.w3.org/2000/svg" viewBox="0 0 605.43 196"><defs><style>.cls-1{fill:#1d4ed8;}</style></defs><circle class="cls-1" cx="19.59" cy="98" r="19.59"/><circle cx="98" cy="19.59" r="19.59"/><circle class="cls-1" cx="176.41" cy="98" r="19.59"/><circle cx="98" cy="176.41" r="19.59"/><path d="M78.38,58.83a19.59,19.59,0,1,0-39.17,0c0,6.36,6.8,19.94,12.4,30.05a18.84,18.84,0,0,1,0,18.24c-5.6,10.11-12.4,23.69-12.4,30a19.59,19.59,0,1,0,39.17,0c0-6.36-6.79-20-12.36-30.07a18.81,18.81,0,0,1,0-18.2C71.59,78.8,78.38,65.19,78.38,58.83Z"/><path d="M156.73,58.83a19.59,19.59,0,0,0-39.18,0c0,6.36,6.81,19.94,12.41,30.05a18.84,18.84,0,0,1,0,18.24c-5.6,10.11-12.41,23.69-12.41,30a19.59,19.59,0,0,0,39.18,0c0-6.36-6.79-20-12.36-30.07a18.81,18.81,0,0,1,0-18.2C149.94,78.8,156.73,65.19,156.73,58.83Z"/><path d="M299.49,21c30,0,49,16.6,49.81,43.33H323.38c-.6-12.76-9.71-20.25-24.29-20.25-16,0-26.33,7.7-26.33,20,0,10.53,5.67,16.4,18,19.23l23.29,5.07c25.31,5.46,37.66,18.42,37.66,40.49,0,27.54-21.46,45.36-54.06,45.36-31.59,0-52.24-16.81-52.85-43.33h25.92c.2,12.55,10.33,20,26.93,20,17.21,0,28.14-7.49,28.14-19.84,0-9.92-5.06-15.79-17.21-18.43l-23.48-5.26C260,102,246.85,87.62,246.85,64.94,246.85,39,268.31,21,299.49,21Z"/><path class="cls-1" d="M383.92,51.57a14.9,14.9,0,0,0,14.78-15,15,15,0,0,0-30,0A15,15,0,0,0,383.92,51.57Z"/><rect x="371.57" y="71.62" width="24.7" height="100.03"/><path d="M410.44,71.62h26.33l17.41,46c4.25,12,7.7,22.28,8.91,27.74,1.42-6.27,5.06-16.8,9.31-27.74l18.23-46h25.51l-41.71,100h-24.3Z"/><path class="cls-1" d="M542.66,51.57a14.9,14.9,0,0,0,14.78-15,15,15,0,0,0-30,0A15,15,0,0,0,542.66,51.57Z"/><rect x="530.31" y="71.62" width="24.7" height="100.03"/><path d="M580.93,171.65V21h24.5V171.65Z"/></svg>